# xmcd
#
# Track frame offsets:
# 180
# 11243
# 24104
# 38833
# 46395
# 55520
# 64701
# 81015
# 90196
# 104482
#
# Disc length: 1573 seconds
#
#
# Revision: 0
# Processed by: cddbd v1.5.2PL0 Copyright (c) Steve Scherf et al.
# Submitted via: FreeRIP 2.96 
#
DISCID=6b06230a
DTITLE=Messengers - Resurrection Morning
DYEAR=1900
DGENRE=Southern Gospel
TTITLE0=Resurrection Morning
TTITLE1=I Was Glad
TTITLE2=He's The One
TTITLE3=Oh I Can't Wait
TTITLE4=Warfare
TTITLE5=Let The Storm Clouds Roll
TTITLE6=The Healer
TTITLE7=On The Other Side
TTITLE8=Lazarus
TTITLE9=I'm Glad I Know Who
EXTD=
EXTT0=
EXTT1=
EXTT2=
EXTT3=
EXTT4=
EXTT5=
EXTT6=
EXTT7=
EXTT8=
EXTT9=
PLAYORDER=
